# xmcd
#
# Track frame offsets:
#	150
#	11257
#	21827
#	31275
#	52397
#	63362
#	82892
#	98975
#	114982
#	130392
#	139517
#	165855
#	181505
#	195402
#	210672
#	222290
#	242245
#	253710
#	269692
#	289177
#
# Disc length: 4025 seconds
#
# Revision: 3
# Processed by: cddbd v1.5.2PL0 Copyright (c) Steve Scherf et al.
# Submitted via: EZCDDA 4.3.3.2
#
DISCID=170fb714
DTITLE=Willie Nelson - Revolutions of Time: The Journey 1975-1993 [CD1] The
DTITLE=Pilgrimage
DYEAR=2005
DGENRE=Country
TTITLE0=Time Of The Preacher
TTITLE1=Blue Eyes Crying In The Rain
TTITLE2=If You've Got The Money (I've Got The Time)
TTITLE3=Uncloudy Day
TTITLE4=Always Late (With Your Kisses)
TTITLE5=Georgia On My Mind
TTITLE6=Blue Skies
TTITLE7=Whiskey River
TTITLE8=Stay A Little Longer
TTITLE9=Mr. Record Man
TTITLE10=Loving Her Was Easier (That Anything I'll Ever Do Again)
TTITLE11=Mamas Don't Let Your Babies Grow Up To Be Cowboys
TTITLE12=My Heros Have Always Been Cowboys
TTITLE13=It's Not Supposed To Be That Way
TTITLE14=On The Road Again
TTITLE15=Angel Flying Too Close To The Ground
TTITLE16=Mona Lisa
TTITLE17=Always On My Mind
TTITLE18=Last Thing I Needed First Thing In The Morning
TTITLE19=The Party's Over
EXTD=
EXTT0=
EXTT1=
EXTT2=
EXTT3=
EXTT4=
EXTT5=
EXTT6=
EXTT7=
EXTT8=
EXTT9=
EXTT10=
EXTT11=
EXTT12=
EXTT13=
EXTT14=
EXTT15=
EXTT16=
EXTT17=
EXTT18=
EXTT19=
PLAYORDER=
